<mxfile host="app.diagrams.net" modified="2023-11-07T11:40:39.325Z" agent="Mozilla/5.0 (Windows NT 10.0; Win64; x64) AppleWebKit/537.36 (KHTML, like Gecko) Chrome/119.0.0.0 Safari/537.36 Edg/119.0.0.0" etag="rluCENMXZVxYOHLSgSts" version="22.0.8" type="github">
  <diagram name="Page-1" id="CvqPpMymDRrK9kkNsmWX">
    <mxGraphModel dx="1386" dy="751" grid="1" gridSize="10" guides="1" tooltips="1" connect="1" arrows="1" fold="1" page="1" pageScale="1" pageWidth="1920" pageHeight="1200" math="0" shadow="0">
      <root>
        <mxCell id="0" />
        <mxCell id="1" parent="0" />
        <mxCell id="SGkM6ez75-bK2jf9rY4_-1" value="GCP&amp;nbsp;" style="rounded=0;whiteSpace=wrap;html=1;" vertex="1" parent="1">
          <mxGeometry x="650" y="50" width="120" height="60" as="geometry" />
        </mxCell>
        <mxCell id="SGkM6ez75-bK2jf9rY4_-25" style="edgeStyle=orthogonalEdgeStyle;rounded=0;orthogonalLoop=1;jettySize=auto;html=1;exitX=0.5;exitY=0;exitDx=0;exitDy=0;" edge="1" parent="1" source="SGkM6ez75-bK2jf9rY4_-3">
          <mxGeometry relative="1" as="geometry">
            <mxPoint x="710" y="120" as="targetPoint" />
          </mxGeometry>
        </mxCell>
        <mxCell id="SGkM6ez75-bK2jf9rY4_-3" value="General attributes" style="rounded=0;whiteSpace=wrap;html=1;" vertex="1" parent="1">
          <mxGeometry x="130" y="230" width="120" height="60" as="geometry" />
        </mxCell>
        <mxCell id="SGkM6ez75-bK2jf9rY4_-24" style="edgeStyle=orthogonalEdgeStyle;rounded=0;orthogonalLoop=1;jettySize=auto;html=1;exitX=0.5;exitY=0;exitDx=0;exitDy=0;" edge="1" parent="1" source="SGkM6ez75-bK2jf9rY4_-4">
          <mxGeometry relative="1" as="geometry">
            <mxPoint x="710" y="130" as="targetPoint" />
          </mxGeometry>
        </mxCell>
        <mxCell id="SGkM6ez75-bK2jf9rY4_-4" value="Location attributes" style="rounded=0;whiteSpace=wrap;html=1;" vertex="1" parent="1">
          <mxGeometry x="260" y="230" width="120" height="60" as="geometry" />
        </mxCell>
        <mxCell id="SGkM6ez75-bK2jf9rY4_-23" style="edgeStyle=orthogonalEdgeStyle;rounded=0;orthogonalLoop=1;jettySize=auto;html=1;exitX=0.5;exitY=0;exitDx=0;exitDy=0;" edge="1" parent="1" source="SGkM6ez75-bK2jf9rY4_-5">
          <mxGeometry relative="1" as="geometry">
            <mxPoint x="710" y="130" as="targetPoint" />
          </mxGeometry>
        </mxCell>
        <mxCell id="SGkM6ez75-bK2jf9rY4_-5" value="Interdependencies (table)" style="rounded=0;whiteSpace=wrap;html=1;" vertex="1" parent="1">
          <mxGeometry x="390" y="230" width="120" height="60" as="geometry" />
        </mxCell>
        <mxCell id="SGkM6ez75-bK2jf9rY4_-21" style="edgeStyle=orthogonalEdgeStyle;rounded=0;orthogonalLoop=1;jettySize=auto;html=1;" edge="1" parent="1" source="SGkM6ez75-bK2jf9rY4_-6">
          <mxGeometry relative="1" as="geometry">
            <mxPoint x="710" y="130" as="targetPoint" />
          </mxGeometry>
        </mxCell>
        <mxCell id="SGkM6ez75-bK2jf9rY4_-6" value="Cloud attributes" style="rounded=0;whiteSpace=wrap;html=1;" vertex="1" parent="1">
          <mxGeometry x="650" y="230" width="120" height="60" as="geometry" />
        </mxCell>
        <mxCell id="SGkM6ez75-bK2jf9rY4_-20" style="edgeStyle=orthogonalEdgeStyle;rounded=0;orthogonalLoop=1;jettySize=auto;html=1;exitX=0.5;exitY=0;exitDx=0;exitDy=0;" edge="1" parent="1" source="SGkM6ez75-bK2jf9rY4_-7">
          <mxGeometry relative="1" as="geometry">
            <mxPoint x="710" y="130" as="targetPoint" />
          </mxGeometry>
        </mxCell>
        <mxCell id="SGkM6ez75-bK2jf9rY4_-7" value="Hardware attributes" style="rounded=0;whiteSpace=wrap;html=1;" vertex="1" parent="1">
          <mxGeometry x="780" y="230" width="120" height="60" as="geometry" />
        </mxCell>
        <mxCell id="SGkM6ez75-bK2jf9rY4_-22" style="edgeStyle=orthogonalEdgeStyle;rounded=0;orthogonalLoop=1;jettySize=auto;html=1;exitX=0.5;exitY=0;exitDx=0;exitDy=0;" edge="1" parent="1" source="SGkM6ez75-bK2jf9rY4_-8">
          <mxGeometry relative="1" as="geometry">
            <mxPoint x="710" y="120" as="targetPoint" />
          </mxGeometry>
        </mxCell>
        <mxCell id="SGkM6ez75-bK2jf9rY4_-8" value="Changes &lt;br&gt;(table)" style="rounded=0;whiteSpace=wrap;html=1;" vertex="1" parent="1">
          <mxGeometry x="520" y="230" width="120" height="60" as="geometry" />
        </mxCell>
        <mxCell id="SGkM6ez75-bK2jf9rY4_-19" style="edgeStyle=orthogonalEdgeStyle;rounded=0;orthogonalLoop=1;jettySize=auto;html=1;exitX=0.5;exitY=0;exitDx=0;exitDy=0;" edge="1" parent="1" source="SGkM6ez75-bK2jf9rY4_-9">
          <mxGeometry relative="1" as="geometry">
            <mxPoint x="710" y="120" as="targetPoint" />
          </mxGeometry>
        </mxCell>
        <mxCell id="SGkM6ez75-bK2jf9rY4_-9" value="Software attributes" style="rounded=0;whiteSpace=wrap;html=1;" vertex="1" parent="1">
          <mxGeometry x="910" y="230" width="120" height="60" as="geometry" />
        </mxCell>
        <mxCell id="SGkM6ez75-bK2jf9rY4_-18" style="edgeStyle=orthogonalEdgeStyle;rounded=0;orthogonalLoop=1;jettySize=auto;html=1;exitX=0.5;exitY=0;exitDx=0;exitDy=0;" edge="1" parent="1" source="SGkM6ez75-bK2jf9rY4_-10">
          <mxGeometry relative="1" as="geometry">
            <mxPoint x="710" y="120" as="targetPoint" />
          </mxGeometry>
        </mxCell>
        <mxCell id="SGkM6ez75-bK2jf9rY4_-10" value="Resilience attributes" style="rounded=0;whiteSpace=wrap;html=1;" vertex="1" parent="1">
          <mxGeometry x="1040" y="230" width="120" height="60" as="geometry" />
        </mxCell>
        <mxCell id="SGkM6ez75-bK2jf9rY4_-17" style="edgeStyle=orthogonalEdgeStyle;rounded=0;orthogonalLoop=1;jettySize=auto;html=1;exitX=0.5;exitY=0;exitDx=0;exitDy=0;" edge="1" parent="1" source="SGkM6ez75-bK2jf9rY4_-11" target="SGkM6ez75-bK2jf9rY4_-1">
          <mxGeometry relative="1" as="geometry">
            <Array as="points">
              <mxPoint x="1230" y="170" />
              <mxPoint x="710" y="170" />
            </Array>
          </mxGeometry>
        </mxCell>
        <mxCell id="SGkM6ez75-bK2jf9rY4_-11" value="Product attributes" style="rounded=0;whiteSpace=wrap;html=1;" vertex="1" parent="1">
          <mxGeometry x="1170" y="230" width="120" height="60" as="geometry" />
        </mxCell>
        <mxCell id="SGkM6ez75-bK2jf9rY4_-65" style="edgeStyle=orthogonalEdgeStyle;rounded=0;orthogonalLoop=1;jettySize=auto;html=1;entryX=0.25;entryY=1;entryDx=0;entryDy=0;" edge="1" parent="1" source="SGkM6ez75-bK2jf9rY4_-12" target="SGkM6ez75-bK2jf9rY4_-3">
          <mxGeometry relative="1" as="geometry" />
        </mxCell>
        <mxCell id="SGkM6ez75-bK2jf9rY4_-69" style="edgeStyle=orthogonalEdgeStyle;rounded=0;orthogonalLoop=1;jettySize=auto;html=1;entryX=0.25;entryY=1;entryDx=0;entryDy=0;" edge="1" parent="1" source="SGkM6ez75-bK2jf9rY4_-12" target="SGkM6ez75-bK2jf9rY4_-9">
          <mxGeometry relative="1" as="geometry" />
        </mxCell>
        <mxCell id="SGkM6ez75-bK2jf9rY4_-12" value="SNOW" style="rounded=0;whiteSpace=wrap;html=1;" vertex="1" parent="1">
          <mxGeometry x="220" y="670" width="120" height="60" as="geometry" />
        </mxCell>
        <mxCell id="SGkM6ez75-bK2jf9rY4_-16" style="edgeStyle=orthogonalEdgeStyle;rounded=0;orthogonalLoop=1;jettySize=auto;html=1;exitX=0.5;exitY=0;exitDx=0;exitDy=0;entryX=0.5;entryY=1;entryDx=0;entryDy=0;" edge="1" parent="1" source="SGkM6ez75-bK2jf9rY4_-13" target="SGkM6ez75-bK2jf9rY4_-11">
          <mxGeometry relative="1" as="geometry">
            <Array as="points">
              <mxPoint x="570" y="400" />
              <mxPoint x="1230" y="400" />
            </Array>
          </mxGeometry>
        </mxCell>
        <mxCell id="SGkM6ez75-bK2jf9rY4_-29" style="edgeStyle=orthogonalEdgeStyle;rounded=0;orthogonalLoop=1;jettySize=auto;html=1;exitX=0.75;exitY=0;exitDx=0;exitDy=0;entryX=0.5;entryY=1;entryDx=0;entryDy=0;fillColor=#e51400;strokeColor=#B20000;" edge="1" parent="1" source="SGkM6ez75-bK2jf9rY4_-13" target="SGkM6ez75-bK2jf9rY4_-10">
          <mxGeometry relative="1" as="geometry" />
        </mxCell>
        <mxCell id="SGkM6ez75-bK2jf9rY4_-44" value="TBD" style="edgeLabel;html=1;align=center;verticalAlign=middle;resizable=0;points=[];fontColor=#FF3333;" vertex="1" connectable="0" parent="SGkM6ez75-bK2jf9rY4_-29">
          <mxGeometry x="0.8806" relative="1" as="geometry">
            <mxPoint as="offset" />
          </mxGeometry>
        </mxCell>
        <mxCell id="SGkM6ez75-bK2jf9rY4_-35" style="edgeStyle=orthogonalEdgeStyle;rounded=0;orthogonalLoop=1;jettySize=auto;html=1;exitX=0.25;exitY=0;exitDx=0;exitDy=0;entryX=0.5;entryY=1;entryDx=0;entryDy=0;" edge="1" parent="1" source="SGkM6ez75-bK2jf9rY4_-13" target="SGkM6ez75-bK2jf9rY4_-7">
          <mxGeometry relative="1" as="geometry" />
        </mxCell>
        <mxCell id="SGkM6ez75-bK2jf9rY4_-38" style="edgeStyle=orthogonalEdgeStyle;rounded=0;orthogonalLoop=1;jettySize=auto;html=1;entryX=0.5;entryY=1;entryDx=0;entryDy=0;" edge="1" parent="1" source="SGkM6ez75-bK2jf9rY4_-13" target="SGkM6ez75-bK2jf9rY4_-8">
          <mxGeometry relative="1" as="geometry" />
        </mxCell>
        <mxCell id="SGkM6ez75-bK2jf9rY4_-39" style="edgeStyle=orthogonalEdgeStyle;rounded=0;orthogonalLoop=1;jettySize=auto;html=1;entryX=0.25;entryY=1;entryDx=0;entryDy=0;fillColor=#e51400;strokeColor=#B20000;" edge="1" parent="1" source="SGkM6ez75-bK2jf9rY4_-13" target="SGkM6ez75-bK2jf9rY4_-6">
          <mxGeometry relative="1" as="geometry" />
        </mxCell>
        <mxCell id="SGkM6ez75-bK2jf9rY4_-45" value="TBD" style="edgeLabel;html=1;align=center;verticalAlign=middle;resizable=0;points=[];fontColor=#FF3333;" vertex="1" connectable="0" parent="SGkM6ez75-bK2jf9rY4_-39">
          <mxGeometry x="0.712" y="1" relative="1" as="geometry">
            <mxPoint as="offset" />
          </mxGeometry>
        </mxCell>
        <mxCell id="SGkM6ez75-bK2jf9rY4_-41" style="edgeStyle=orthogonalEdgeStyle;rounded=0;orthogonalLoop=1;jettySize=auto;html=1;exitX=0;exitY=0;exitDx=0;exitDy=0;entryX=0.5;entryY=1;entryDx=0;entryDy=0;" edge="1" parent="1" source="SGkM6ez75-bK2jf9rY4_-13" target="SGkM6ez75-bK2jf9rY4_-4">
          <mxGeometry relative="1" as="geometry" />
        </mxCell>
        <mxCell id="SGkM6ez75-bK2jf9rY4_-42" style="edgeStyle=orthogonalEdgeStyle;rounded=0;orthogonalLoop=1;jettySize=auto;html=1;exitX=0;exitY=0.25;exitDx=0;exitDy=0;entryX=0.5;entryY=1;entryDx=0;entryDy=0;" edge="1" parent="1" source="SGkM6ez75-bK2jf9rY4_-13" target="SGkM6ez75-bK2jf9rY4_-3">
          <mxGeometry relative="1" as="geometry" />
        </mxCell>
        <mxCell id="SGkM6ez75-bK2jf9rY4_-43" style="edgeStyle=orthogonalEdgeStyle;rounded=0;orthogonalLoop=1;jettySize=auto;html=1;exitX=1;exitY=0;exitDx=0;exitDy=0;" edge="1" parent="1" source="SGkM6ez75-bK2jf9rY4_-13" target="SGkM6ez75-bK2jf9rY4_-9">
          <mxGeometry relative="1" as="geometry" />
        </mxCell>
        <mxCell id="SGkM6ez75-bK2jf9rY4_-13" value="vCloud" style="rounded=0;whiteSpace=wrap;html=1;" vertex="1" parent="1">
          <mxGeometry x="470" y="610" width="120" height="60" as="geometry" />
        </mxCell>
        <mxCell id="SGkM6ez75-bK2jf9rY4_-46" style="edgeStyle=orthogonalEdgeStyle;rounded=0;orthogonalLoop=1;jettySize=auto;html=1;exitX=0.5;exitY=0;exitDx=0;exitDy=0;entryX=0.25;entryY=1;entryDx=0;entryDy=0;" edge="1" parent="1" source="SGkM6ez75-bK2jf9rY4_-14" target="SGkM6ez75-bK2jf9rY4_-7">
          <mxGeometry relative="1" as="geometry" />
        </mxCell>
        <mxCell id="SGkM6ez75-bK2jf9rY4_-47" style="edgeStyle=orthogonalEdgeStyle;rounded=0;orthogonalLoop=1;jettySize=auto;html=1;exitX=0.75;exitY=0;exitDx=0;exitDy=0;" edge="1" parent="1" source="SGkM6ez75-bK2jf9rY4_-14">
          <mxGeometry relative="1" as="geometry">
            <mxPoint x="970" y="300" as="targetPoint" />
          </mxGeometry>
        </mxCell>
        <mxCell id="SGkM6ez75-bK2jf9rY4_-51" style="edgeStyle=orthogonalEdgeStyle;rounded=0;orthogonalLoop=1;jettySize=auto;html=1;exitX=0.5;exitY=0;exitDx=0;exitDy=0;entryX=0.75;entryY=1;entryDx=0;entryDy=0;" edge="1" parent="1" source="SGkM6ez75-bK2jf9rY4_-14" target="SGkM6ez75-bK2jf9rY4_-4">
          <mxGeometry relative="1" as="geometry" />
        </mxCell>
        <mxCell id="SGkM6ez75-bK2jf9rY4_-52" style="edgeStyle=orthogonalEdgeStyle;rounded=0;orthogonalLoop=1;jettySize=auto;html=1;exitX=0.5;exitY=0;exitDx=0;exitDy=0;" edge="1" parent="1" source="SGkM6ez75-bK2jf9rY4_-14" target="SGkM6ez75-bK2jf9rY4_-3">
          <mxGeometry relative="1" as="geometry" />
        </mxCell>
        <mxCell id="SGkM6ez75-bK2jf9rY4_-14" value="Spider" style="rounded=0;whiteSpace=wrap;html=1;" vertex="1" parent="1">
          <mxGeometry x="720" y="560" width="120" height="60" as="geometry" />
        </mxCell>
        <mxCell id="SGkM6ez75-bK2jf9rY4_-54" style="edgeStyle=orthogonalEdgeStyle;rounded=0;orthogonalLoop=1;jettySize=auto;html=1;exitX=0.75;exitY=0;exitDx=0;exitDy=0;entryX=0.75;entryY=1;entryDx=0;entryDy=0;" edge="1" parent="1" source="SGkM6ez75-bK2jf9rY4_-15" target="SGkM6ez75-bK2jf9rY4_-9">
          <mxGeometry relative="1" as="geometry" />
        </mxCell>
        <mxCell id="SGkM6ez75-bK2jf9rY4_-60" style="edgeStyle=orthogonalEdgeStyle;rounded=0;orthogonalLoop=1;jettySize=auto;html=1;entryX=1;entryY=1;entryDx=0;entryDy=0;" edge="1" parent="1" source="SGkM6ez75-bK2jf9rY4_-15" target="SGkM6ez75-bK2jf9rY4_-6">
          <mxGeometry relative="1" as="geometry" />
        </mxCell>
        <mxCell id="SGkM6ez75-bK2jf9rY4_-61" style="edgeStyle=orthogonalEdgeStyle;rounded=0;orthogonalLoop=1;jettySize=auto;html=1;exitX=0;exitY=0.25;exitDx=0;exitDy=0;entryX=0.75;entryY=1;entryDx=0;entryDy=0;" edge="1" parent="1" source="SGkM6ez75-bK2jf9rY4_-15" target="SGkM6ez75-bK2jf9rY4_-8">
          <mxGeometry relative="1" as="geometry" />
        </mxCell>
        <mxCell id="SGkM6ez75-bK2jf9rY4_-62" style="edgeStyle=orthogonalEdgeStyle;rounded=0;orthogonalLoop=1;jettySize=auto;html=1;exitX=0;exitY=0.75;exitDx=0;exitDy=0;entryX=0.75;entryY=1;entryDx=0;entryDy=0;" edge="1" parent="1" source="SGkM6ez75-bK2jf9rY4_-15" target="SGkM6ez75-bK2jf9rY4_-5">
          <mxGeometry relative="1" as="geometry" />
        </mxCell>
        <mxCell id="SGkM6ez75-bK2jf9rY4_-64" style="edgeStyle=orthogonalEdgeStyle;rounded=0;orthogonalLoop=1;jettySize=auto;html=1;exitX=0;exitY=0.75;exitDx=0;exitDy=0;entryX=0.75;entryY=1;entryDx=0;entryDy=0;" edge="1" parent="1" source="SGkM6ez75-bK2jf9rY4_-15" target="SGkM6ez75-bK2jf9rY4_-3">
          <mxGeometry relative="1" as="geometry" />
        </mxCell>
        <mxCell id="SGkM6ez75-bK2jf9rY4_-15" value="iCMS" style="rounded=0;whiteSpace=wrap;html=1;" vertex="1" parent="1">
          <mxGeometry x="1070" y="510" width="120" height="60" as="geometry" />
        </mxCell>
        <mxCell id="SGkM6ez75-bK2jf9rY4_-48" style="edgeStyle=orthogonalEdgeStyle;rounded=0;orthogonalLoop=1;jettySize=auto;html=1;exitX=0.25;exitY=0;exitDx=0;exitDy=0;entryX=0.567;entryY=1.033;entryDx=0;entryDy=0;entryPerimeter=0;" edge="1" parent="1" source="SGkM6ez75-bK2jf9rY4_-14" target="SGkM6ez75-bK2jf9rY4_-8">
          <mxGeometry relative="1" as="geometry" />
        </mxCell>
        <mxCell id="SGkM6ez75-bK2jf9rY4_-53" style="edgeStyle=orthogonalEdgeStyle;rounded=0;orthogonalLoop=1;jettySize=auto;html=1;exitX=0.5;exitY=0;exitDx=0;exitDy=0;entryX=0.408;entryY=1.05;entryDx=0;entryDy=0;entryPerimeter=0;" edge="1" parent="1" source="SGkM6ez75-bK2jf9rY4_-15" target="SGkM6ez75-bK2jf9rY4_-11">
          <mxGeometry relative="1" as="geometry" />
        </mxCell>
        <mxCell id="SGkM6ez75-bK2jf9rY4_-55" style="edgeStyle=orthogonalEdgeStyle;rounded=0;orthogonalLoop=1;jettySize=auto;html=1;exitX=0.25;exitY=0;exitDx=0;exitDy=0;entryX=0.833;entryY=1.05;entryDx=0;entryDy=0;entryPerimeter=0;" edge="1" parent="1" source="SGkM6ez75-bK2jf9rY4_-15" target="SGkM6ez75-bK2jf9rY4_-7">
          <mxGeometry relative="1" as="geometry" />
        </mxCell>
        <mxCell id="SGkM6ez75-bK2jf9rY4_-63" style="edgeStyle=orthogonalEdgeStyle;rounded=0;orthogonalLoop=1;jettySize=auto;html=1;exitX=0;exitY=0.25;exitDx=0;exitDy=0;entryX=0.917;entryY=1.033;entryDx=0;entryDy=0;entryPerimeter=0;" edge="1" parent="1" source="SGkM6ez75-bK2jf9rY4_-15" target="SGkM6ez75-bK2jf9rY4_-4">
          <mxGeometry relative="1" as="geometry" />
        </mxCell>
        <mxCell id="SGkM6ez75-bK2jf9rY4_-66" style="edgeStyle=orthogonalEdgeStyle;rounded=0;orthogonalLoop=1;jettySize=auto;html=1;entryX=0.333;entryY=1.017;entryDx=0;entryDy=0;entryPerimeter=0;" edge="1" parent="1" source="SGkM6ez75-bK2jf9rY4_-12" target="SGkM6ez75-bK2jf9rY4_-4">
          <mxGeometry relative="1" as="geometry" />
        </mxCell>
        <mxCell id="SGkM6ez75-bK2jf9rY4_-67" style="edgeStyle=orthogonalEdgeStyle;rounded=0;orthogonalLoop=1;jettySize=auto;html=1;exitX=0.75;exitY=0;exitDx=0;exitDy=0;entryX=0.133;entryY=1.05;entryDx=0;entryDy=0;entryPerimeter=0;" edge="1" parent="1" source="SGkM6ez75-bK2jf9rY4_-12" target="SGkM6ez75-bK2jf9rY4_-8">
          <mxGeometry relative="1" as="geometry" />
        </mxCell>
        <mxCell id="SGkM6ez75-bK2jf9rY4_-68" style="edgeStyle=orthogonalEdgeStyle;rounded=0;orthogonalLoop=1;jettySize=auto;html=1;entryX=0.642;entryY=0.967;entryDx=0;entryDy=0;entryPerimeter=0;" edge="1" parent="1" source="SGkM6ez75-bK2jf9rY4_-12" target="SGkM6ez75-bK2jf9rY4_-7">
          <mxGeometry relative="1" as="geometry" />
        </mxCell>
      </root>
    </mxGraphModel>
  </diagram>
</mxfile>
